<svg width="30" height="30" viewBox="0 0 30 30" fill="none" xmlns="http://www.w3.org/2000/svg">
  <g clip-path="url(#clip0)">
    <path d="M24.0421 9C23.3437 8.99531 22.6781 9.10781 22.0546 9.32344L20.5124 6.75H24.3749C24.9984 6.75 25.4999 6.24844 25.4999 5.625V4.125C25.4999 3.50156 24.9984 3 24.3749 3H22.2515C21.9327 3 21.6281 3.13594 21.4171 3.37031L19.6593 5.325L18.5906 3.54375C18.3843 3.20625 18.0187 3 17.6249 3H13.8749C13.4624 3 13.1249 3.3375 13.1249 3.75V4.5C13.1249 4.9125 13.4624 5.25 13.8749 5.25H16.9874L17.8874 6.75H10.6827C9.85306 5.66719 8.57806 4.875 5.99993 4.875H3.39837C2.76556 4.875 2.23587 5.39062 2.24993 6.02344C2.25931 6.63281 2.76087 7.125 3.37493 7.125H5.99993C7.14837 7.125 7.81399 7.63594 8.24056 8.2875L7.71087 9.24844C7.10149 9.06563 6.44993 8.98125 5.77493 9.00469C2.62024 9.11719 0.0749309 11.7 -6.90614e-05 14.8594C-0.0750691 18.2391 2.63899 21 5.99993 21C8.79368 21 11.1421 19.0875 11.8124 16.5H15.7593C16.4015 16.5 16.9124 15.9656 16.8843 15.3234C16.7859 13.1156 17.7046 10.9312 19.5187 9.46406L20.1046 10.4391C18.8109 11.55 17.9906 13.2 18.0046 15.0422C18.0281 18.3047 20.6859 20.9719 23.9484 21C27.3046 21.0328 30.0327 18.3047 30.0046 14.9484C29.9718 11.6859 27.3046 9.02344 24.0421 9ZM5.99993 18.75C3.93274 18.75 2.24993 17.0672 2.24993 15C2.24993 12.9328 3.93274 11.25 5.99993 11.25C6.19681 11.25 6.39368 11.2641 6.58587 11.2969L4.64056 14.8312C4.22806 15.5812 4.77181 16.5 5.62493 16.5H9.43587C8.85462 17.8219 7.53274 18.75 5.99993 18.75ZM27.7452 15.2062C27.6421 17.1094 26.1046 18.6469 24.2062 18.7453C22.0452 18.8625 20.2499 17.1375 20.2499 15C20.2499 13.9969 20.6437 13.0875 21.2859 12.4172L23.6015 16.2797C23.8124 16.6359 24.2765 16.7484 24.6327 16.5375L25.2749 16.1531C25.6312 15.9422 25.7437 15.4781 25.5327 15.1219L23.2546 11.3297C23.4984 11.2781 23.7468 11.2547 23.9999 11.2547C26.1374 11.25 27.8577 13.0453 27.7452 15.2062Z" fill="white"/>
  </g>
  <defs>
    <clipPath id="clip0">
      <rect width="30" height="24" fill="white"/>
    </clipPath>
  </defs>
</svg>
