<svg width="32" height="32" viewBox="0 0 32 32" fill="none" xmlns="http://www.w3.org/2000/svg">
  <path d="M6 3V29H26V9.6L25.7 9.3L19.7 3.3L19.4 3H6ZM8 5H18V11H24V27H8V5ZM20 6.4L22.6 9H20V6.4ZM10 9V11H16V9H10ZM10 13V15H22V13H10ZM13.5 16C12.6 16 11.9 16.6 11.5 17.3C11.1 18 11 18.9 11 19.9C11 20.5 11.2 21.1 11.3 21.7C10.9 21.8 10.5 22.1 10 22.1V24.1C10.7 24.1 11.4 24 12 23.8C12.1 24 12.1 24.1 12.3 24.3C12.7 24.7 13.3 25 14 25C15.6 25 16.6 23.9 17.3 23.1C17.4 22.9 17.5 22.8 17.6 22.7C17.6 22.8 17.6 22.9 17.7 23C17.8 23.2 17.9 23.4 18.1 23.6C18.3 23.8 18.7 24 19 24C19.6 24 20 23.6 20.2 23.4C20.4 23.2 20.6 22.9 20.8 22.7C21.2 22.3 21.5 22 21.9 22V20C20.7 20 19.8 20.7 19.3 21.3C19.3 21.2 19.3 21.1 19.2 21C19.1 20.8 19 20.6 18.8 20.3C18.6 20 18.3 20 18 20C17.2 20 16.9 20.5 16.6 20.8C16.3 21.1 16 21.5 15.8 21.9C15.2 22.6 14.8 23 14 23C13.9 23 13.9 22.9 13.8 22.9C13.9 22.9 13.9 22.8 14 22.8C15.1 21.9 16 20.7 16 19.1C16 18.3 15.8 17.6 15.4 17C15 16.4 14.3 16 13.5 16ZM13.4 18C13.7 18 13.7 18 13.8 18.2C13.9 18.4 14 18.7 14 19.2C14 19.8 13.7 20.4 13.2 20.9C13.2 20.6 13 20.2 13 20C13 19.2 13.1 18.6 13.3 18.3C13.4 18.1 13.4 18 13.4 18Z" fill="white"/>
</svg>
