<svg width="32" height="32" viewBox="0 0 32 32" fill="none" xmlns="http://www.w3.org/2000/svg">
  <path d="M29.5782 15.7813L17.5032 3.71252L16.6938 2.90314C16.5094 2.71994 16.26 2.61713 16 2.61713C15.7401 2.61713 15.4907 2.71994 15.3063 2.90314L2.4219 15.7813C2.23294 15.9695 2.0836 16.1937 1.98269 16.4406C1.88179 16.6875 1.83137 16.9521 1.8344 17.2188C1.8469 18.3188 2.76253 19.1969 3.86253 19.1969H5.19065V29.375H26.8094V19.1969H28.1657C28.7 19.1969 29.2032 18.9875 29.5813 18.6094C29.7675 18.4238 29.915 18.2031 30.0153 17.9601C30.1156 17.7171 30.1667 17.4566 30.1657 17.1938C30.1657 16.6625 29.9563 16.1594 29.5782 15.7813ZM17.75 27.125H14.25V20.75H17.75V27.125ZM24.5594 16.9469V27.125H19.75V20C19.75 19.3094 19.1907 18.75 18.5 18.75H13.5C12.8094 18.75 12.25 19.3094 12.25 20V27.125H7.44065V16.9469H4.44065L16.0032 5.39377L16.725 6.11564L27.5625 16.9469H24.5594Z" fill="white"/>
</svg>
