<svg width="29" height="29" viewBox="0 0 29 29" fill="none" xmlns="http://www.w3.org/2000/svg">
  <path d="M25.8277 3.17233H23.4633L16.7702 11.7368L12.6689 6.98266L0.90625 24.0424V28.0937H3.61684L13.0699 14.3845L16.9428 18.874L25.8277 7.50511V3.17233Z" fill="white"/>
  <path d="M28.0938 0.90625H0.90625V22.446L2.1673 20.6172H1.8125V14.9531H6.07278L6.69764 14.0469H1.8125V8.38281H7.47656V12.9163L8.38281 11.6023V8.38281H10.6027L11.2275 7.47656H8.38281V1.8125H14.0469V7.19381L15.0737 8.38281H18.241L18.9492 7.47656H14.9531V1.8125H20.6172V5.3428L21.5234 4.18234V1.8125H27.1875V7.47656H26.7348V7.81686L26.2921 8.38281H27.1875V14.0469H21.866L20.6172 15.6441V20.6172H14.9531V17.9555L14.0469 16.9056V20.6172H9.87359L9.24873 21.5234H14.0469V27.1875H8.38281V22.7781L7.47656 24.0922V27.1875H5.3428L4.71794 28.0938H28.0938V0.90625ZM7.47656 7.47656H1.8125V1.8125H7.47656V7.47656ZM20.6172 27.1875H14.9531V21.5234H20.6172V27.1875ZM27.1875 27.1875H21.5234V21.5234H27.1875V27.1875ZM27.1875 20.6172H21.5234V14.9531H27.1875V20.6172Z" fill="white"/>
</svg>
