<svg width="26" height="26" viewBox="0 0 26 26" fill="none" xmlns="http://www.w3.org/2000/svg">
  <rect x="0.5" y="0.5" width="25" height="25" rx="3.5" stroke="#C0B7B7"/>
  <g clip-path="url(#clip0)">
    <path d="M17.1145 6.18161L17.2458 6.20296H19.0623V8.25314H17.2458C17.1437 8.25314 17.0452 8.26026 16.9504 8.2745C16.8555 8.28873 16.7789 8.31365 16.7206 8.34924C16.6622 8.38484 16.6075 8.42399 16.5564 8.4667C16.5054 8.50941 16.4616 8.55212 16.4251 8.59484C16.3886 8.63755 16.3595 8.68382 16.3376 8.73365C16.3157 8.78348 16.3011 8.82619 16.2938 8.86179L16.2719 8.96857L16.261 9.04331V12.3321H19.8064L19.3031 14.3823H16.261V24.6332H14.16V14.3823H11.3586V12.3321H14.16V9.15009C14.16 8.70874 14.2183 8.31365 14.3351 7.96483C14.4518 7.61602 14.6086 7.34195 14.8056 7.14263C15.0026 6.9433 15.2032 6.77246 15.4074 6.63008C15.6117 6.48771 15.8379 6.38805 16.0859 6.3311C16.3339 6.27415 16.5309 6.235 16.6768 6.21364C16.8227 6.19228 16.9686 6.18161 17.1145 6.18161ZM17.1145 4.81482C16.2099 4.81482 15.4001 5.02838 14.6852 5.4555C13.4013 6.21008 12.7593 7.44161 12.7593 9.15009V10.9654H11.3586C10.9793 10.9654 10.651 11.1006 10.3738 11.3711C10.0966 11.6416 9.95795 11.962 9.95795 12.3321V14.3823C9.95795 14.7525 10.0966 15.0728 10.3738 15.3433C10.651 15.6139 10.9793 15.7491 11.3586 15.7491H12.7593V24.6119C12.7593 24.9963 12.8943 25.3202 13.1642 25.5836C13.4341 25.847 13.766 25.9786 14.16 25.9786H16.261C16.6403 25.9786 16.9686 25.847 17.2458 25.5836C17.523 25.3202 17.6617 24.9963 17.6617 24.6119V15.7491H19.3031C19.6241 15.7491 19.9086 15.6566 20.1566 15.4715C20.4046 15.2864 20.5724 15.0515 20.66 14.7667L21.1414 12.7166C21.2728 12.2752 21.1998 11.873 20.9226 11.5099C20.6454 11.1469 20.2733 10.9654 19.8064 10.9654H17.6617V9.61993H19.0623C19.4417 9.61993 19.77 9.48467 20.0472 9.21416C20.3244 8.94365 20.463 8.62331 20.463 8.25314V6.20296C20.463 5.81855 20.328 5.49465 20.0581 5.23126C19.7882 4.96787 19.4636 4.83618 19.0842 4.83618H17.2896C17.2312 4.82194 17.1729 4.81482 17.1145 4.81482Z" fill="#C0B7B7"/>
  </g>
  <defs>
    <clipPath id="clip0">
      <rect width="11.5556" height="21.1852" fill="white" transform="translate(9.62964 4.81482)"/>
    </clipPath>
  </defs>
</svg>
