<svg width="34" height="34" viewBox="0 0 34 34" fill="none" xmlns="http://www.w3.org/2000/svg">
  <path d="M17 3.71875C14.6748 3.71936 12.3905 4.33024 10.3754 5.49033C8.36028 6.65042 6.68495 8.31909 5.51683 10.3296C4.34872 12.34 3.72875 14.6219 3.71887 16.947C3.70899 19.2722 4.30956 21.5592 5.46055 23.5795L4.26458 27.7652C4.18652 28.0385 4.18297 28.3277 4.25427 28.6028C4.32558 28.8779 4.46916 29.129 4.67013 29.3299C4.8711 29.5309 5.12216 29.6745 5.39728 29.7457C5.6724 29.817 5.96158 29.8135 6.23485 29.7354L10.4207 28.5395C12.1879 29.5471 14.1629 30.1352 16.1934 30.2586C18.2239 30.382 20.2556 30.0374 22.1319 29.2513C24.0081 28.4652 25.6787 27.2587 27.0148 25.7247C28.3509 24.1908 29.3168 22.3704 29.838 20.4041C30.3592 18.4378 30.4218 16.378 30.021 14.3836C29.6201 12.3893 28.7665 10.5136 27.526 8.9014C26.2855 7.28916 24.6913 5.98339 22.8663 5.08481C21.0412 4.18624 19.0342 3.71887 17 3.71875ZM17 29.2187C14.8055 29.2202 12.6513 28.6299 10.7642 27.5098C10.7019 27.4728 10.6328 27.4489 10.561 27.4396C10.4892 27.4302 10.4162 27.4357 10.3466 27.4557L5.94293 28.7138C5.85184 28.7398 5.75546 28.741 5.66377 28.7172C5.57208 28.6934 5.48841 28.6455 5.42144 28.5786C5.35446 28.5116 5.30662 28.4279 5.28286 28.3362C5.2591 28.2445 5.26029 28.1481 5.2863 28.057L6.5443 23.6535C6.5642 23.5839 6.56965 23.5109 6.56033 23.4391C6.55101 23.3673 6.52712 23.2982 6.49012 23.2359C5.11389 20.9173 4.54315 18.2086 4.86681 15.5318C5.19047 12.855 6.39035 10.3604 8.27954 8.43657C10.1687 6.51276 12.6411 5.26779 15.3116 4.89558C17.9821 4.52338 20.7008 5.04485 23.044 6.37875C25.3872 7.71266 27.2235 9.7841 28.2668 12.2704C29.3101 14.7567 29.5017 17.5182 28.812 20.1248C28.1222 22.7314 26.5897 25.0367 24.4532 26.6815C22.3168 28.3264 19.6963 29.2184 17 29.2187ZM23.7086 19.4627L20.9912 17.91C20.7454 17.7697 20.4667 17.6974 20.1836 17.7004C19.9006 17.7034 19.6234 17.7817 19.3806 17.9272L17.5469 19.0274C16.4368 18.4649 15.5351 17.5631 14.9727 16.4531L16.0729 14.6193C16.2184 14.3765 16.2967 14.0994 16.2997 13.8163C16.3027 13.5333 16.2303 13.2545 16.0899 13.0087L14.5374 10.2914C14.4106 10.0701 14.2277 9.88628 14.0071 9.75831C13.7866 9.63034 13.5362 9.5628 13.2812 9.5625C12.1569 9.56277 11.0785 10.0084 10.2819 10.802C9.48543 11.5955 9.03571 12.6722 9.03122 13.7966C9.02914 15.2629 9.31617 16.7154 9.87588 18.0707C10.4356 19.4261 11.257 20.6578 12.2932 21.6954C13.3293 22.7331 14.5598 23.5563 15.9144 24.1179C17.269 24.6796 18.7209 24.9687 20.1873 24.9687H20.2033C21.3276 24.9643 22.4044 24.5146 23.198 23.7181C23.9915 22.9216 24.4372 21.8431 24.4375 20.7187C24.4372 20.4638 24.3696 20.2134 24.2417 19.9929C24.1137 19.7724 23.9298 19.5895 23.7086 19.4627ZM20.2018 23.9062H20.1875C18.8607 23.9062 17.547 23.6447 16.3215 23.1365C15.0959 22.6284 13.9826 21.8836 13.0451 20.9448C12.1076 20.006 11.3644 18.8916 10.858 17.6654C10.3516 16.4391 10.0918 15.125 10.0937 13.7983C10.0974 12.9553 10.4348 12.1482 11.0322 11.5534C11.6296 10.9587 12.4383 10.6249 13.2812 10.625C13.3489 10.6251 13.4154 10.643 13.474 10.677C13.5326 10.711 13.5811 10.7598 13.6148 10.8185L15.1674 13.536C15.2142 13.6179 15.2383 13.7108 15.2373 13.8052C15.2364 13.8995 15.2103 13.9919 15.1618 14.0728L13.9147 16.1511C13.8706 16.2245 13.845 16.3076 13.8399 16.3931C13.8349 16.4787 13.8506 16.5642 13.8858 16.6423C14.5792 18.1855 15.8145 19.4208 17.3578 20.1142C17.4359 20.1494 17.5214 20.1651 17.607 20.1601C17.6925 20.155 17.7756 20.1294 17.849 20.0852L19.9272 18.8381C20.0081 18.7896 20.1005 18.7636 20.1949 18.7626C20.2892 18.7615 20.3821 18.7857 20.4641 18.8324L23.1815 20.3853C23.2402 20.4189 23.289 20.4675 23.323 20.526C23.357 20.5846 23.3749 20.651 23.375 20.7187C23.3751 21.5617 23.0413 22.3703 22.4466 22.9677C21.8519 23.5651 21.0447 23.9026 20.2018 23.9062Z" fill="#C0B7B7"/>
</svg>
