<svg width="27" height="30" viewBox="0 0 27 30" fill="none" xmlns="http://www.w3.org/2000/svg">
  <path d="M24.4592 2.81177H11.7353C7.89206 4.91314 9.90697 7.91509 11.698 8.59053H17.1457L8.93684 20.073C8.66818 22.2945 10.2179 22.9749 11.0264 23.0374C15.0686 23.0625 23.3174 23.0975 23.9741 23.0374C24.6308 22.9774 25.2925 22.4621 25.5412 22.2119V18.2343C25.0636 17.694 24.2975 17.3838 23.9741 17.2962H18.004L25.5412 6.93946V3.48721C25.2427 3.06693 24.6955 2.8618 24.4592 2.81177Z" stroke="#C0B7B7"/>
  <path d="M23.521 1H3.05757C1.77065 1.29987 1.14964 2.47434 1 3.0241V23.5649C1.23943 24.9143 2.47147 25.4516 3.05757 25.5515L7.43458 25.6265V29L12.1857 25.5515H23.6333C24.591 25.5515 25.3042 24.2021 25.5412 23.5274V3.43641C25.5412 1.87711 24.1944 1.16243 23.521 1Z" stroke="#C0B7B7"/>
</svg>
